<svg width="300" height="300" viewBox="0 0 300 300" xmlns="http://www.w3.org/2000/svg">
  <defs>
    <style>
      .circle-pattern { fill: none; stroke: #2c2c2c; stroke-width: 1.5; }
      .center-circle { fill: #f2ecdf; stroke: #2c2c2c; stroke-width: 2; }
    </style>
  </defs>
  
  <!-- Background circle -->
  <circle cx="150" cy="150" r="140" fill="#f2ecdf" stroke="#2c2c2c" stroke-width="2"/>
  
  <!-- Geometric pattern - outer ring -->
  <g class="circle-pattern">
    <!-- Outer segments -->
    <g transform="translate(150,150)">
      <!-- Create radial segments -->
      <g>
        <path d="M 0,-120 L 0,-80 L 15,-85 Z"/>
        <path d="M 15,-85 L 0,-80 L 20,-70 Z"/>
        <path d="M 20,-70 L 0,-80 L 25,-55 Z"/>
        <path d="M 25,-55 L 0,-80 L 30,-40 Z"/>
        <path d="M 30,-40 L 0,-80 L 35,-25 Z"/>
        <path d="M 35,-25 L 0,-80 L 40,-10 Z"/>
        <path d="M 40,-10 L 0,-80 L 45,5 Z"/>
        <path d="M 45,5 L 0,-80 L 50,20 Z"/>
        <path d="M 50,20 L 0,-80 L 55,35 Z"/>
        <path d="M 55,35 L 0,-80 L 60,50 Z"/>
        <path d="M 60,50 L 0,-80 L 65,65 Z"/>
        <path d="M 65,65 L 0,-80 L 70,80 Z"/>
      </g>
      
      <!-- Repeat for all 24 segments around the circle -->
      <g transform="rotate(30)">
        <path d="M 0,-120 L 0,-80 L 15,-85 Z"/>
        <path d="M 15,-85 L 0,-80 L 20,-70 Z"/>
        <path d="M 20,-70 L 0,-80 L 25,-55 Z"/>
        <path d="M 25,-55 L 0,-80 L 30,-40 Z"/>
        <path d="M 30,-40 L 0,-80 L 35,-25 Z"/>
        <path d="M 35,-25 L 0,-80 L 40,-10 Z"/>
        <path d="M 40,-10 L 0,-80 L 45,5 Z"/>
        <path d="M 45,5 L 0,-80 L 50,20 Z"/>
        <path d="M 50,20 L 0,-80 L 55,35 Z"/>
        <path d="M 55,35 L 0,-80 L 60,50 Z"/>
        <path d="M 60,50 L 0,-80 L 65,65 Z"/>
        <path d="M 65,65 L 0,-80 L 70,80 Z"/>
      </g>
      
      <!-- Continue pattern for full circle -->
      <g transform="rotate(60)">
        <path d="M 0,-120 L 0,-80 L 15,-85 Z"/>
        <path d="M 15,-85 L 0,-80 L 20,-70 Z"/>
        <path d="M 20,-70 L 0,-80 L 25,-55 Z"/>
        <path d="M 25,-55 L 0,-80 L 30,-40 Z"/>
        <path d="M 30,-40 L 0,-80 L 35,-25 Z"/>
        <path d="M 35,-25 L 0,-80 L 40,-10 Z"/>
        <path d="M 40,-10 L 0,-80 L 45,5 Z"/>
        <path d="M 45,5 L 0,-80 L 50,20 Z"/>
        <path d="M 50,20 L 0,-80 L 55,35 Z"/>
        <path d="M 55,35 L 0,-80 L 60,50 Z"/>
        <path d="M 60,50 L 0,-80 L 65,65 Z"/>
        <path d="M 65,65 L 0,-80 L 70,80 Z"/>
      </g>
      
      <!-- Simplified radial lines for the pattern -->
      <g stroke="#2c2c2c" stroke-width="1" fill="none">
        <circle cx="0" cy="0" r="80"/>
        <circle cx="0" cy="0" r="60"/>
        <circle cx="0" cy="0" r="40"/>
        <circle cx="0" cy="0" r="20"/>
        
        <!-- Radial lines -->
        <line x1="0" y1="-120" x2="0" y2="120"/>
        <line x1="-120" y1="0" x2="120" y2="0"/>
        <line x1="-85" y1="-85" x2="85" y2="85"/>
        <line x1="85" y1="-85" x2="-85" y2="85"/>
        
        <!-- Additional radial lines for 24-segment pattern -->
        <line x1="0" y1="-120" x2="60" y2="104" transform="rotate(15)"/>
        <line x1="0" y1="-120" x2="60" y2="104" transform="rotate(30)"/>
        <line x1="0" y1="-120" x2="60" y2="104" transform="rotate(45)"/>
        <line x1="0" y1="-120" x2="60" y2="104" transform="rotate(60)"/>
        <line x1="0" y1="-120" x2="60" y2="104" transform="rotate(75)"/>
        <line x1="0" y1="-120" x2="60" y2="104" transform="rotate(90)"/>
        <line x1="0" y1="-120" x2="60" y2="104" transform="rotate(105)"/>
        <line x1="0" y1="-120" x2="60" y2="104" transform="rotate(120)"/>
        <line x1="0" y1="-120" x2="60" y2="104" transform="rotate(135)"/>
        <line x1="0" y1="-120" x2="60" y2="104" transform="rotate(150)"/>
        <line x1="0" y1="-120" x2="60" y2="104" transform="rotate(165)"/>
        <line x1="0" y1="-120" x2="60" y2="104" transform="rotate(180)"/>
      </g>
    </g>
  </g>
  
  <!-- Center circle -->
  <circle cx="150" cy="150" r="20" class="center-circle"/>
</svg>
